<svg xmlns="http://www.w3.org/2000/svg" width="1200" height="630" viewBox="0 0 1200 630" role="img" aria-labelledby="title desc">
  <title id="title">AI unemployment wave</title>
  <desc id="desc">Abstract labor market transition with human nodes, AI grid, and shifting job paths.</desc>
  <defs>
    <linearGradient id="bg" x1="0" y1="0" x2="1" y2="1">
      <stop offset="0" stop-color="#101827"/>
      <stop offset="0.52" stop-color="#183044"/>
      <stop offset="1" stop-color="#26351f"/>
    </linearGradient>
    <linearGradient id="line" x1="0" y1="0" x2="1" y2="0">
      <stop offset="0" stop-color="#71d6ff"/>
      <stop offset="0.55" stop-color="#f1c75b"/>
      <stop offset="1" stop-color="#f26d5b"/>
    </linearGradient>
    <filter id="soft" x="-20%" y="-20%" width="140%" height="140%">
      <feDropShadow dx="0" dy="12" stdDeviation="18" flood-color="#000" flood-opacity="0.25"/>
    </filter>
  </defs>
  <rect width="1200" height="630" fill="url(#bg)"/>
  <g opacity="0.14" stroke="#fff" stroke-width="1">
    <path d="M90 112h1020M90 184h1020M90 256h1020M90 328h1020M90 400h1020M90 472h1020"/>
    <path d="M162 76v478M266 76v478M370 76v478M474 76v478M578 76v478M682 76v478M786 76v478M890 76v478M994 76v478"/>
  </g>
  <g filter="url(#soft)">
    <path d="M126 452c86-112 174-166 264-162 128 6 157 133 278 135 130 3 179-143 322-146 47-1 87 11 121 35" fill="none" stroke="url(#line)" stroke-width="18" stroke-linecap="round"/>
    <path d="M126 452c86-112 174-166 264-162 128 6 157 133 278 135 130 3 179-143 322-146 47-1 87 11 121 35" fill="none" stroke="#fff" stroke-width="3" stroke-linecap="round" opacity="0.72"/>
  </g>
  <g fill="#eef7ff">
    <circle cx="188" cy="390" r="20"/>
    <path d="M151 455c7-34 25-51 37-51s30 17 37 51z"/>
    <circle cx="432" cy="302" r="20"/>
    <path d="M395 367c7-34 25-51 37-51s30 17 37 51z"/>
    <circle cx="689" cy="424" r="20"/>
    <path d="M652 489c7-34 25-51 37-51s30 17 37 51z"/>
  </g>
  <g transform="translate(796 132)" filter="url(#soft)">
    <rect x="0" y="0" width="216" height="158" rx="18" fill="#eaf6ff"/>
    <rect x="24" y="28" width="168" height="38" rx="10" fill="#142133"/>
    <circle cx="70" cy="108" r="18" fill="#142133"/>
    <circle cx="146" cy="108" r="18" fill="#142133"/>
    <path d="M66 109h84" stroke="#142133" stroke-width="12" stroke-linecap="round"/>
    <path d="M108-34v34M108 158v34M-34 79h34M216 79h34" stroke="#eaf6ff" stroke-width="12" stroke-linecap="round"/>
  </g>
  <g fill="none" stroke="#f1c75b" stroke-width="5" stroke-linecap="round" opacity="0.9">
    <path d="M246 188h94"/>
    <path d="M246 222h156"/>
    <path d="M246 256h78"/>
  </g>
  <g fill="#f1c75b" opacity="0.95">
    <rect x="197" y="176" width="28" height="28" rx="5"/>
    <rect x="197" y="210" width="28" height="28" rx="5"/>
    <rect x="197" y="244" width="28" height="28" rx="5"/>
  </g>
  <text x="90" y="112" fill="#f6fbff" font-family="Arial, sans-serif" font-size="54" font-weight="700">AI Unemployment Wave</text>
  <text x="92" y="156" fill="#b9cad6" font-family="Arial, sans-serif" font-size="24">job entry, task automation, and human judgment</text>
</svg>
