<svg xmlns="http://www.w3.org/2000/svg" viewBox="0 0 1200 675" role="img" aria-labelledby="title desc">
  <title id="title">DeepSeek V4 special cover</title>
  <desc id="desc">A million-token context window flowing through model, agent, chip, and cloud layers.</desc>
  <rect width="1200" height="675" fill="#f8fafc"/>
  <rect x="54" y="52" width="1092" height="571" fill="#ffffff" stroke="#111827" stroke-width="4"/>
  <g opacity=".12" stroke="#111827" stroke-width="2">
    <path d="M126 120h948"/>
    <path d="M126 188h948"/>
    <path d="M126 256h948"/>
    <path d="M126 324h948"/>
    <path d="M126 392h948"/>
    <path d="M126 460h948"/>
    <path d="M126 528h948"/>
    <path d="M180 92v504"/>
    <path d="M300 92v504"/>
    <path d="M420 92v504"/>
    <path d="M540 92v504"/>
    <path d="M660 92v504"/>
    <path d="M780 92v504"/>
    <path d="M900 92v504"/>
    <path d="M1020 92v504"/>
  </g>
  <path d="M138 488c98-108 172-92 260-178 84-83 112-178 226-170 120 8 128 116 236 128 86 10 138-42 202-98" fill="none" stroke="#14b8a6" stroke-width="18" stroke-linecap="round"/>
  <path d="M138 520c124-82 202-42 310-98 142-74 120-202 250-196 106 6 120 92 206 108 72 14 108-18 158-58" fill="none" stroke="#111827" stroke-width="6" stroke-linecap="round" opacity=".82"/>
  <g fill="#ffffff" stroke="#111827" stroke-width="4">
    <rect x="118" y="112" width="214" height="112"/>
    <rect x="376" y="112" width="214" height="112"/>
    <rect x="634" y="112" width="214" height="112"/>
    <rect x="892" y="112" width="214" height="112"/>
    <rect x="248" y="310" width="214" height="112"/>
    <rect x="506" y="310" width="214" height="112"/>
    <rect x="764" y="310" width="214" height="112"/>
  </g>
  <g fill="#111827">
    <rect x="146" y="140" width="96" height="12"/>
    <rect x="146" y="168" width="154" height="12"/>
    <rect x="146" y="196" width="118" height="12"/>
    <rect x="404" y="140" width="128" height="12"/>
    <rect x="404" y="168" width="106" height="12"/>
    <rect x="404" y="196" width="150" height="12"/>
    <rect x="662" y="140" width="120" height="12"/>
    <rect x="662" y="168" width="156" height="12"/>
    <rect x="662" y="196" width="86" height="12"/>
    <rect x="920" y="140" width="88" height="12"/>
    <rect x="920" y="168" width="146" height="12"/>
    <rect x="920" y="196" width="112" height="12"/>
    <rect x="276" y="338" width="140" height="12"/>
    <rect x="276" y="366" width="96" height="12"/>
    <rect x="276" y="394" width="116" height="12"/>
    <rect x="534" y="338" width="104" height="12"/>
    <rect x="534" y="366" width="154" height="12"/>
    <rect x="534" y="394" width="120" height="12"/>
    <rect x="792" y="338" width="126" height="12"/>
    <rect x="792" y="366" width="102" height="12"/>
    <rect x="792" y="394" width="148" height="12"/>
  </g>
  <g fill="#14b8a6" stroke="#111827" stroke-width="4">
    <circle cx="138" cy="488" r="16"/>
    <circle cx="398" cy="310" r="16"/>
    <circle cx="624" cy="140" r="16"/>
    <circle cx="860" cy="268" r="16"/>
    <circle cx="1062" cy="170" r="16"/>
  </g>
  <g stroke="#111827" stroke-width="5" stroke-linecap="round" stroke-linejoin="round" fill="none">
    <path d="M332 168h44"/>
    <path d="m364 156 12 12-12 12"/>
    <path d="M590 168h44"/>
    <path d="m622 156 12 12-12 12"/>
    <path d="M848 168h44"/>
    <path d="m880 156 12 12-12 12"/>
    <path d="M462 366h44"/>
    <path d="m494 354 12 12-12 12"/>
    <path d="M720 366h44"/>
    <path d="m752 354 12 12-12 12"/>
  </g>
  <g font-family="Arial, Helvetica, sans-serif" fill="#111827">
    <text x="128" y="586" font-size="42" font-weight="700">DeepSeek V4</text>
    <text x="128" y="626" font-size="22">1M context · MoE · Agent workflow · Open weights</text>
    <text x="914" y="586" font-size="30" font-weight="700">Preview</text>
    <text x="914" y="622" font-size="20">2026.04</text>
  </g>
</svg>
