<svg xmlns="http://www.w3.org/2000/svg" viewBox="0 0 1200 675" role="img" aria-labelledby="title desc">
  <title id="title">Corporate empires cover</title>
  <desc id="desc">A structured illustration of Samsung, Mitsubishi, GE, Tata, and other corporate empires connected to industry, finance, and national economies.</desc>
  <rect width="1200" height="675" fill="#f8fafc"/>
  <rect x="72" y="72" width="1056" height="531" fill="#ffffff" stroke="#111827" stroke-width="4"/>
  <path d="M132 542H1068" stroke="#111827" stroke-width="6" stroke-linecap="round"/>

  <g transform="translate(128 132)">
    <rect x="0" y="64" width="236" height="324" fill="#dbeafe" stroke="#111827" stroke-width="5"/>
    <rect x="28" y="24" width="180" height="52" fill="#2563eb" stroke="#111827" stroke-width="5"/>
    <path d="M38 118h160M38 164h160M38 210h160M38 256h160M38 302h160" stroke="#111827" stroke-width="5" stroke-linecap="round"/>
    <g fill="#ffffff" stroke="#111827" stroke-width="4">
      <rect x="46" y="132" width="42" height="30"/>
      <rect x="148" y="132" width="42" height="30"/>
      <rect x="46" y="224" width="42" height="30"/>
      <rect x="148" y="224" width="42" height="30"/>
      <rect x="46" y="316" width="42" height="30"/>
      <rect x="148" y="316" width="42" height="30"/>
    </g>
    <text x="118" y="57" text-anchor="middle" fill="#ffffff" font-family="Arial, sans-serif" font-size="28" font-weight="700">SAMSUNG</text>
  </g>

  <g transform="translate(458 98)">
    <circle cx="142" cy="232" r="118" fill="#fee2e2" stroke="#111827" stroke-width="5"/>
    <circle cx="142" cy="232" r="66" fill="#ffffff" stroke="#111827" stroke-width="5"/>
    <path d="M142 74v316M-16 232h316M30 120l224 224M254 120L30 344" stroke="#111827" stroke-width="4" stroke-linecap="round"/>
    <g fill="#ef4444" stroke="#111827" stroke-width="4">
      <circle cx="142" cy="74" r="22"/>
      <circle cx="300" cy="232" r="22"/>
      <circle cx="142" cy="390" r="22"/>
      <circle cx="-16" cy="232" r="22"/>
      <circle cx="254" cy="120" r="22"/>
      <circle cx="254" cy="344" r="22"/>
      <circle cx="30" cy="344" r="22"/>
      <circle cx="30" cy="120" r="22"/>
    </g>
    <text x="142" y="240" text-anchor="middle" fill="#111827" font-family="Arial, sans-serif" font-size="32" font-weight="700">GROUP</text>
  </g>

  <g transform="translate(782 132)">
    <rect x="0" y="124" width="288" height="264" fill="#dcfce7" stroke="#111827" stroke-width="5"/>
    <path d="M38 124V74h66v50M182 124V42h66v82" fill="#bbf7d0" stroke="#111827" stroke-width="5" stroke-linejoin="round"/>
    <path d="M44 326h200M44 286h200M44 246h200M44 206h200M70 388V176M144 388V176M218 388V176" stroke="#111827" stroke-width="5" stroke-linecap="round"/>
    <path d="M28 124h232" stroke="#111827" stroke-width="7" stroke-linecap="round"/>
    <text x="144" y="170" text-anchor="middle" fill="#111827" font-family="Arial, sans-serif" font-size="30" font-weight="700">MITSUBISHI</text>
  </g>

  <g fill="#111827" font-family="Arial, sans-serif" font-weight="700">
    <text x="246" y="576" text-anchor="middle" font-size="26">Technology</text>
    <text x="600" y="576" text-anchor="middle" font-size="26">Finance</text>
    <text x="926" y="576" text-anchor="middle" font-size="26">Industry</text>
  </g>

  <g stroke="#111827" stroke-width="5" stroke-linecap="round" fill="none">
    <path d="M364 310h78"/>
    <path d="M758 310h78"/>
    <path d="M600 488v38"/>
    <path d="M246 526h680"/>
  </g>

  <g transform="translate(164 424)" fill="#ffffff" stroke="#111827" stroke-width="4">
    <rect x="0" y="0" width="90" height="54"/>
    <rect x="116" y="0" width="90" height="54"/>
    <rect x="232" y="0" width="90" height="54"/>
  </g>
  <g fill="#111827" font-family="Arial, sans-serif" font-weight="700" font-size="20">
    <text x="209" y="458" text-anchor="middle">GE</text>
    <text x="325" y="458" text-anchor="middle">Tata</text>
    <text x="441" y="458" text-anchor="middle">SK</text>
  </g>
</svg>
